<svg id="visual" viewBox="0 0 900 600" width="900" height="600" xmlns="http://www.w3.org/2000/svg" xmlns:xlink="http://www.w3.org/1999/xlink" version="1.1"><rect x="0" y="0" width="900" height="600" fill="#000000"></rect><path d="M0 232L30 229C60 226 120 220 180 221.5C240 223 300 232 360 254C420 276 480 311 540 314.8C600 318.7 660 291.3 720 277C780 262.7 840 261.3 870 260.7L900 260L900 601L870 601C840 601 780 601 720 601C660 601 600 601 540 601C480 601 420 601 360 601C300 601 240 601 180 601C120 601 60 601 30 601L0 601Z" fill="#0a0f2f"></path></svg>