<svg id="visual" viewBox="0 0 900 600" width="900" height="600" xmlns="http://www.w3.org/2000/svg" xmlns:xlink="http://www.w3.org/1999/xlink" version="1.1"><path d="M0 115L21.5 116C43 117 86 119 128.8 122C171.7 125 214.3 129 257.2 125C300 121 343 109 385.8 107C428.7 105 471.3 113 514.2 116C557 119 600 117 642.8 116C685.7 115 728.3 115 771.2 115C814 115 857 115 878.5 115L900 115L900 0L878.5 0C857 0 814 0 771.2 0C728.3 0 685.7 0 642.8 0C600 0 557 0 514.2 0C471.3 0 428.7 0 385.8 0C343 0 300 0 257.2 0C214.3 0 171.7 0 128.8 0C86 0 43 0 21.5 0L0 0Z" fill="#080b24"></path><path d="M0 301L21.5 303C43 305 86 309 128.8 320C171.7 331 214.3 349 257.2 347C300 345 343 323 385.8 319C428.7 315 471.3 329 514.2 339C557 349 600 355 642.8 355C685.7 355 728.3 349 771.2 345C814 341 857 339 878.5 338L900 337L900 113L878.5 113C857 113 814 113 771.2 113C728.3 113 685.7 113 642.8 114C600 115 557 117 514.2 114C471.3 111 428.7 103 385.8 105C343 107 300 119 257.2 123C214.3 127 171.7 123 128.8 120C86 117 43 115 21.5 114L0 113Z" fill="#0b0e2b"></path><path d="M0 523L21.5 523C43 523 86 523 128.8 523C171.7 523 214.3 523 257.2 519C300 515 343 507 385.8 502C428.7 497 471.3 495 514.2 499C557 503 600 513 642.8 514C685.7 515 728.3 507 771.2 507C814 507 857 515 878.5 519L900 523L900 335L878.5 336C857 337 814 339 771.2 343C728.3 347 685.7 353 642.8 353C600 353 557 347 514.2 337C471.3 327 428.7 313 385.8 317C343 321 300 343 257.2 345C214.3 347 171.7 329 128.8 318C86 307 43 303 21.5 301L0 299Z" fill="#0b0e2b"></path><path d="M0 601L21.5 601C43 601 86 601 128.8 601C171.7 601 214.3 601 257.2 601C300 601 343 601 385.8 601C428.7 601 471.3 601 514.2 601C557 601 600 601 642.8 601C685.7 601 728.3 601 771.2 601C814 601 857 601 878.5 601L900 601L900 521L878.5 517C857 513 814 505 771.2 505C728.3 505 685.7 513 642.8 512C600 511 557 501 514.2 497C471.3 493 428.7 495 385.8 500C343 505 300 513 257.2 517C214.3 521 171.7 521 128.8 521C86 521 43 521 21.5 521L0 521Z" fill="#080b24"></path></svg>